Coordinates
version=1
nRows=5
nColumns=40
inDegrees=yes

Units are S.I. units (second, meters, Newtons, ...)
Angles are in degrees.

endheader
time	pelvis_tilt	pelvis_list	pelvis_rotation	pelvis_tx	pelvis_ty	pelvis_tz	hip_flexion_r	hip_adduction_r	hip_rotation_r	knee_angle_r	knee_angle_r_beta	ankle_angle_r	subtalar_angle_r	mtp_angle_r	hip_flexion_l	hip_adduction_l	hip_rotation_l	knee_angle_l	knee_angle_l_beta	ankle_angle_l	subtalar_angle_l	mtp_angle_l	lumbar_extension	lumbar_bending	lumbar_rotation	arm_flex_r	arm_add_r	arm_rot_r	elbow_flex_r	pro_sup_r	wrist_flex_r	wrist_dev_r	arm_flex_l	arm_add_l	arm_rot_l	elbow_flex_l	pro_sup_l	wrist_flex_l	wrist_dev_l
     19.36000000	     -2.60342619	     -4.97799429	      1.45608628	      1.04529252	      0.93520865	      0.41346648	     27.48084530	     -6.96636414	     -5.24588647	     58.77373952	     58.77373952	      4.59091204	     -5.75175858	     -2.40769961	     14.42362195	     -6.29786005	     -9.81996551	     22.02739768	     22.02739768	     13.64602945	     -4.11122078	     -1.88692655	    -10.57233958	      4.70815702	      1.03408185	     10.28125228	    -14.78470148	     -2.34921324	     39.19182538	     45.69762187	      0.00000000	      0.00000000	     17.91211065	    -15.66127015	      3.35407205	     37.06754624	     45.68254838	      0.00000000	      0.00000000
     19.37307143	     -2.67775781	     -5.17514452	      1.22635184	      1.04460223	      0.93581603	      0.41331081	     28.04207832	     -6.71892904	     -5.41665483	     56.19111044	     56.19111044	      4.59449896	     -5.61867996	     -2.42596972	     13.88881702	     -6.49532781	    -10.00394417	     21.58601777	     21.58601777	     13.76409408	     -3.99633346	     -2.01447266	    -10.63349604	      4.93057526	      0.94724473	      8.11366643	    -14.52772658	     -2.23002443	     37.90355013	     45.72747943	      0.00000000	      0.00000000	     19.20014603	    -16.09751250	      3.10322247	     37.80103954	     45.74138820	      0.00000000	      0.00000000
     19.38614286	     -2.77387867	     -5.29940315	      0.98386402	      1.04395499	      0.93635412	      0.41316166	     28.46583456	     -6.54471799	     -5.62754429	     53.32720523	     53.32720523	      4.49180106	     -5.31172538	     -2.42993194	     13.32786511	     -6.60732421	    -10.25027668	     21.05841737	     21.05841737	     13.85553990	     -3.81140987	     -2.13823077	    -10.68530840	      5.06659343	      0.86889041	      5.95698355	    -14.27391160	     -2.16597573	     36.63639595	     45.75959620	      0.00000000	      0.00000000	     20.40408840	    -16.54146292	      2.82484581	     38.64490631	     45.80090991	      0.00000000	      0.00000000
     19.39921429	     -2.82384468	     -5.36752536	      0.71821391	      1.04336233	      0.93682230	      0.41311748	     28.71150334	     -6.36363783	     -5.78230890	     50.22919079	     50.22919079	      4.28098773	     -4.92629761	     -2.52733287	     12.71224226	     -6.67659735	    -10.57266815	     20.54166605	     20.54166605	     13.93023296	     -3.59661127	     -2.38957510	    -10.79532828	      5.11565982	      0.95155461	      3.83739155	    -14.01327782	     -2.21813394	     35.15800680	     45.80812011	      0.00000000	      0.00000000	     21.63733075	    -16.95618731	      2.46051566	     39.72147749	     45.87406153	      0.00000000	      0.00000000
     19.41228571	     -3.03893864	     -5.45982706	      0.51287561	      1.04274418	      0.93693122	      0.41313816	     29.00412150	     -6.15717263	     -6.04292604	     46.91921761	     46.91921761	      4.10322790	     -4.39140443	     -2.16735906	     12.36124848	     -6.75606090	    -10.74677211	     20.13672380	     20.13672380	     14.05351383	     -3.48511020	     -2.49612115	    -10.68137182	      5.23206681	      0.55074440	      1.90563296	    -13.65889106	     -2.20077558	     34.19923663	     45.83157603	      0.00000000	      0.00000000	     22.60428914	    -17.62824465	      2.18808754	     40.35806280	     45.92344907	      0.00000000	      0.00000000
